<?xml version="1.0" encoding="UTF-8"?>
<svg xmlns="http://www.w3.org/2000/svg" version="1.1" viewBox="0 0 100.2 100.2">
  <defs>
    <style>
      .cls-1 {
        fill: #fff;
      }
    </style>
  </defs>
  <!-- Generator: Adobe Illustrator 28.7.2, SVG Export Plug-In . SVG Version: 1.2.0 Build 154)  -->
  <g>
    <g id="Calque_1">
      <path class="cls-1" d="M50,9.5c-.2,0-.4,0-.6,0L12.4,22.5c-.8.3-1.3,1.1-1.2,1.9l5.8,47.9c0,.6.4,1.1.9,1.3l31.2,16.9c.3.1.6.2.8.2s.6,0,.8-.2l31.3-17.2c.5-.3.8-.8.9-1.3l5.8-47.9c.1-.8-.4-1.6-1.2-1.9l-37.2-12.6c-.2,0-.4,0-.6,0ZM50.1,18.3l22.9,49.4h-7.8l-4.9-10.6h-20.4l-4.9,10.6h-7.8l22.9-49.4ZM50.1,35.1l-6.9,15h13.8l-6.9-15Z"/>
    </g>
  </g>
</svg>