<?xml version="1.0" encoding="utf-8"?>
<!-- Generator: Adobe Illustrator 28.2.0, SVG Export Plug-In . SVG Version: 6.00 Build 0)  -->
<svg version="1.1" id="Calque_1" xmlns="http://www.w3.org/2000/svg" xmlns:xlink="http://www.w3.org/1999/xlink" x="0px" y="0px"
	 viewBox="0 0 63.1 63.1" style="enable-background:new 0 0 63.1 63.1;" xml:space="preserve">
<style type="text/css">
	.st0{fill:#FFFFFF;}
</style>
<g>
	<path class="st0" d="M63,32.4C63,15,48.9,0.9,31.5,0.9S0,15,0,32.4c0,13.8,8.9,25.5,21.3,29.8c0.8-0.5,1.6-1.2,1.6-2.3
		c0-1.7,0-6.2,0-6.2s-1.4,0.2-3.3,0.2c-4.9,0-6.5-3.1-7.2-4.9c-1-2.3-2.2-3.3-3.5-4.2c-0.8-0.5-1-1.1-0.1-1.3
		c4.4-0.8,5.5,4.9,8.4,5.8c2.1,0.7,4.7,0.4,6.1-0.5c0.2-1.7,1.4-3.3,2.5-4.1c-7.4-0.7-11.8-3.3-14.1-7.4l-0.2-0.5l-0.6-1.3l-0.2-0.5
		c-0.7-2.1-1-4.5-1-7.1c0-4.7,1.5-6.5,3.5-9c-1.5-5.4,0.5-9.1,0.5-9.1s3.2-0.7,9.2,3.6c3.3-1.4,12-1.5,16.2-0.3
		c2.5-1.7,7.2-4,9.1-3.4c0.5,0.8,1.6,3.2,0.7,8.4c0.6,1.1,3.9,3.6,4,10.4c-0.1,2.5-0.3,4.7-0.8,6.5l-0.3,0.9c0,0-0.2,0.4-0.3,0.9
		l-0.2,0.5c-2.2,4.8-6.7,6.6-14,7.3c2.4,1.5,3,3.3,3,8.3s-0.1,5.7-0.1,6.8c0,1,0.8,1.7,1.6,2.3C54.1,58,63,46.2,63,32.4z"/>
</g>
</svg>
