<?xml version="1.0" encoding="utf-8"?>
<!-- Generator: Adobe Illustrator 28.2.0, SVG Export Plug-In . SVG Version: 6.00 Build 0)  -->
<svg version="1.1" id="Calque_1" xmlns="http://www.w3.org/2000/svg" xmlns:xlink="http://www.w3.org/1999/xlink" x="0px" y="0px"
	 viewBox="0 0 63.1 63.1" style="enable-background:new 0 0 63.1 63.1;" xml:space="preserve">
<style type="text/css">
	.st0{fill:#FFFFFF;}
</style>
<g>
	<path class="st0" d="M31.5,0C14.1,0,0,14.1,0,31.5s14.1,31.5,31.5,31.5s31.5-14.1,31.5-31.5C63.1,14.1,48.9,0,31.5,0z M23.1,46.8
		h-6.9V24.4h6.9V46.8z M19.6,21.5c-2.3,0-4.1-1.8-4.1-4.1c0-2.3,1.8-4.1,4.1-4.1s4.1,1.8,4.1,4.1C23.7,19.6,21.9,21.5,19.6,21.5z
		 M49.1,46.8h-6.9V35c0-3.2-1.2-5-3.8-5c-2.8,0-4.2,1.9-4.2,5v11.7h-6.6V24.4h6.6v3c0,0,2-3.7,6.7-3.7c4.7,0,8.1,2.9,8.1,8.9
		L49.1,46.8L49.1,46.8z"/>
</g>
</svg>
