<?xml version="1.0" encoding="utf-8"?>
<!-- Generator: Adobe Illustrator 28.2.0, SVG Export Plug-In . SVG Version: 6.00 Build 0)  -->
<svg version="1.1" id="Calque_1" xmlns="http://www.w3.org/2000/svg" xmlns:xlink="http://www.w3.org/1999/xlink" x="0px" y="0px"
	 viewBox="0 0 662.6 87.1" style="enable-background:new 0 0 662.6 87.1;" xml:space="preserve">
<style type="text/css">
	.st0{fill:#11324A;}
</style>
<g>
	<g>
		<g>
			<path class="st0" d="M49.1,32.7c0.7-4.4,2-8.5,4.2-12.3c4.5-7.5,11.3-12,19.6-14.2c5.1-1.3,10.2-1.6,15.4-1
				c4.7,0.5,9.1,1.8,13.1,4.4c5.6,3.6,9.1,8.7,10.6,15.2c1.9,8.1,0.6,15.7-3.2,22.9c-8.7,16.3-22.2,27.1-39.8,32.5
				c-6.8,2.1-13.8,2.6-20.9,1.3c-6-1.2-10.7-4.5-14-9.6c-2.5-3.9-4-8.3-5.5-12.6c-6.3-17.3-12.6-34.7-18.8-52
				C9.8,6.9,9.7,6.6,9.6,6.2c7.4,0,14.6,0,22,0c0.9,2.5,1.7,5.1,2.6,7.6c4.9,14.3,9.7,28.6,14.6,42.8c0.6,1.6,1.3,3.2,2.1,4.8
				c1.3,2.5,3.6,3.4,6.3,3.6c4.5,0.3,8.7-0.8,12.6-2.8c9.4-4.7,16.7-11.5,21.2-21.1c1.3-2.8,2-5.7,2.1-8.8c0-5.8-3-9.9-9.1-10.4
				c-6-0.5-11.4,1.9-14,7.3c-0.4,1-0.6,2-1,3c-0.1,0.3-0.4,0.6-0.7,0.6c-6.3,0-12.5,0-18.8,0C49.4,32.8,49.3,32.7,49.1,32.7z"/>
			<path class="st0" d="M147.4,82.1c-7.2,0-13.9-0.9-20.2-3.5c-4.8-2-8.9-4.9-11.7-9.4c-2.5-4.1-3.3-8.6-2.8-13.3
				c0.9-8.2,5.3-14.3,12-18.8c5.5-3.7,11.7-5.9,18.2-7.1c9-1.6,18.1-1.8,27.1,0.4c5.6,1.4,10.8,3.7,15,7.9
				c4.5,4.6,6.3,10.1,5.7,16.5c-0.8,8.5-5.4,14.5-12.2,19.1c-5.4,3.7-11.5,5.6-17.8,7C156.2,81.8,151.6,82,147.4,82.1z M148.1,66.3
				c4.7-0.1,9.4-0.6,13.8-2.3c2.6-1,5-2.3,6.9-4.4c2.6-2.9,3-7.1,1-10c-1.4-2.1-3.5-3.2-5.9-3.8c-7.1-1.8-14.3-1.4-21.3,0.6
				c-3.1,0.9-6,2.3-8.3,4.8c-2.2,2.4-2.9,6.1-1.6,9c1,2.2,2.9,3.5,5.1,4.4C141.2,66,144.6,66.3,148.1,66.3z"/>
			<path class="st0" d="M292.9,82.1c-6.8,0.1-13.8-0.8-20.5-3.6c-5.1-2.1-9.3-5.3-12-10.1c-2-3.6-2.7-7.6-2.4-11.7
				c0.7-9.3,5.8-15.8,13.4-20.5c6-3.7,12.6-5.6,19.5-6.6c4.5-0.7,9.1-0.9,13.7-0.7c6.7,0.3,13.2,1.5,19.2,4.7
				c4.7,2.5,8.5,5.9,10.8,10.8c1.8,4,2,8.2,1.3,12.4c-1.3,7.4-5.6,12.8-11.7,17c-5.5,3.7-11.6,5.8-18,7.1
				C301.8,81.7,297.5,82,292.9,82.1z M301.1,44.7c-4.3,0-8.4,0.3-12.3,1.5c-3.3,1-6.5,2.3-8.9,4.9c-3.5,3.8-3.4,10.4,2.3,13
				c2.5,1.2,5.2,1.8,7.9,2c6.5,0.5,12.9-0.2,19-2.9c2-0.9,3.8-2.1,5.2-3.8c2.1-2.6,2.8-5.5,1.5-8.7c-0.9-2.3-2.8-3.6-5-4.4
				C307.6,45.1,304.3,44.8,301.1,44.7z"/>
			<path class="st0" d="M348.4,30.1c6,0,11.9,0,17.8,0c0,1.7,0,3.4,0,5.2c0.3-0.2,0.5-0.3,0.8-0.5c6.1-4.5,13.1-6.1,20.5-6
				c4.7,0.1,9.3,0.9,13.6,2.9c5.8,2.7,9.9,6.9,11.9,13.1c1.2,3.8,1.1,7.7,0.4,11.7c-1.4,7.9-2.8,15.7-4.2,23.6
				c0,0.2-0.1,0.5-0.2,0.8c-6.4,0-12.8,0-19.2,0c1.1-6.4,2.3-12.8,3.4-19.2c0.3-1.9,0.7-3.7,0.9-5.6c0.6-5.9-2.2-9.6-7.9-10.7
				c-5.8-1.1-11.3-0.4-16.4,2.7c-4.3,2.7-6.4,6.7-7.2,11.7c-1.1,7-2.4,13.9-3.7,20.9c0,0.1-0.1,0.2-0.1,0.4c-6.3,0-12.7,0-19.1,0
				C342.4,63.9,345.4,47,348.4,30.1z"/>
			<polygon class="st0" points="213.6,80.8 194.4,80.8 207.5,6.2 226.7,6.2 			"/>
			<polygon class="st0" points="245.3,80.8 226.1,80.8 239.3,6.2 258.5,6.2 			"/>
		</g>
		<g>
			<g>
				<polygon class="st0" points="563,80.9 542.6,80.9 547.9,50.9 493.7,50.9 488.4,80.9 468,80.9 481.2,6.3 501.6,6.3 496.9,32.9 
					551,32.9 555.7,6.3 576.1,6.3 				"/>
				<path class="st0" d="M604.2,30.2c-1.5,8.1-2.9,16.1-4.3,24.2c-0.6,3.3-0.4,6.4,2.2,8.9c1.6,1.6,3.6,2.3,5.8,2.8
					c4.3,0.8,8.5,0.6,12.5-0.9c5.1-1.9,8.1-5.6,9.1-10.9c1.4-7.6,2.7-15.2,4.1-22.8c0.1-0.4,0.1-0.8,0.2-1.2c6.4,0,12.7,0,19.2,0
					c-3,16.9-5.9,33.8-8.9,50.7c-5.4,0-10.8,0-16.3,0c0-1.6,0-3.2,0-5c-0.3,0.2-0.5,0.2-0.7,0.4c-6.8,4.9-14.4,6.3-22.5,5.9
					c-5.2-0.3-10.2-1.5-14.6-4.4c-6.7-4.3-10-10.6-9.7-18.6c0.2-3.6,0.9-7.2,1.5-10.8c1-5.8,2.1-11.6,3.1-17.4
					c0.1-0.5,0.2-0.8,0.8-0.8c6,0,12,0,18,0C603.8,30.1,604,30.2,604.2,30.2z"/>
			</g>
		</g>
	</g>
</g>
</svg>
