<?xml version="1.0" encoding="UTF-8"?>
<svg xmlns="http://www.w3.org/2000/svg" version="1.1" viewBox="0 0 100.2 100.2">
  <defs>
    <style>
      .cls-1 {
        fill: #fff;
      }
    </style>
  </defs>
  <!-- Generator: Adobe Illustrator 28.7.2, SVG Export Plug-In . SVG Version: 1.2.0 Build 154)  -->
  <g>
    <g id="Calque_1">
      <g>
        <path class="cls-1" d="M0,73.1h4v-14.8l5.6,12.6c.7,1.6,1.6,2.1,3.5,2.1s2.7-.6,3.4-2.1l5.6-12.3v14.5h4v-15.2c0-1.5-.6-2.2-1.8-2.5-2.9-.9-4.8-.1-5.6,1.8l-5.7,12.9-5.5-12.9c-.8-1.9-2.8-2.7-5.6-1.8-1.2.4-1.8,1.1-1.8,2.5v15.2h0Z"/>
        <path class="cls-1" d="M28.1,61.1h4v8.5c0,.4.1,1.5,2.1,1.6,1,0,5.9,0,5.9,0v-10h4s0,12.5,0,12.5c0,3.1-3.8,3.5-5.6,3.5h-10.5v-2s10,0,10,0c2.3-.2,2-1.5,2-1.9h0c0-.1-6.3-.1-6.3-.1-3.5,0-5.7-1.6-5.7-3.3,0-.2,0-8.6,0-8.7Z"/>
        <path class="cls-1" d="M46.1,73.1h10c1.3,0,2.6-.3,3.6-.8,1.7-.8,2.4-1.8,2.4-3.2v-2.9c0-3.1-3.8-3.2-6-3.2h-4c-1.6,0-1.8-1-2-2v-2c.2-.8.5-1.9,1.9-2h10.1v-2h-9.5c-1.6,0-6.5.2-6.5,4v2.5c0,1.8,1.5,3.2,4.9,3.5.4,0,.8,0,1.1,0,0,0,3.9,0,4,0,2.3,0,2,1.8,2,2v2c0,.3,0,2-2,2h-10v2h0Z"/>
        <path class="cls-1" d="M84.2,69.1c0,2.4,1.4,3.8,5,4,.3,0,.7,0,1,0h10v-2h-9.3c-2.1,0-2.8-.9-2.8-2.1v-13.9h-4v13.9Z"/>
        <path class="cls-1" d="M64.1,69.1v-10c0-2.1,1-3.6,4-4h9.7c3,.4,4.3,1.9,4.3,4v10c0,1.7-.4,2.7-1.9,3.3l3.1,2.8h-4.5l-2.2-2h-7.1c-.6,0-1.3,0-2.1-.3-2.2-.6-3.3-1.8-3.3-3.7ZM68.1,69.1c.2,1,1,2,2.4,2h3.9l-2.2-2h4.5l1.1,1s.4-.3.4-1,0-10,0-10c-.2-.9-1.1-2-2.5-2h-5.2c-1.6,0-2.4,1.1-2.4,2.2v9.8h0Z"/>
        <path class="cls-1" d="M96.4,53c-2.2,0-3.8.1-5.2.7-.4.2-1,.2-1.1.7.2.2.3.6.4.9.3.5.9,1.3,1.4,1.7.6.4,1.1.9,1.7,1.2,1.1.6,2.2,1,3.2,1.7.6.4,1.2.9,1.8,1.3.3.2.5.5.9.7h0c-.2-.3-.2-.7-.4-.9-.3-.3-.5-.5-.8-.8-.8-1-1.8-1.9-2.8-2.7-.8-.6-2.7-1.4-3.1-2.4,0,0,0,0,0,0,.6,0,1.3-.3,1.8-.4.9-.2,1.7-.2,2.7-.4.4-.1.9-.2,1.3-.4v-.2c-.5-.5-.8-1.1-1.3-1.6-1.4-1.2-2.9-2.3-4.4-3.3-.9-.5-1.9-.9-2.8-1.3-.3-.2-.8-.2-1-.5-.5-.6-.7-1.4-1.1-2.1-.8-1.5-1.5-3.1-2.2-4.6-.5-1.1-.8-2.1-1.3-3.1-2.8-4.6-5.8-7.3-10.4-10-1-.6-2.2-.8-3.4-1.1-.7,0-1.3,0-2-.1-.4-.2-.8-.7-1.2-.9-1.5-1-5.5-3.1-6.6-.3-.7,1.7,1.1,3.5,1.7,4.3.4.6,1,1.3,1.3,2,.2.5.2.9.4,1.4.4,1.2,1.1,2.6,1.7,3.7.3.6.6,1.2,1,1.7.2.3.6.4.7.9-.4.5-.4,1.3-.6,2-1,3-.6,6.8.8,9,.4.7,1.4,2.2,2.8,1.6,1.2-.5.9-2,1.3-3.4,0-.3,0-.5.2-.7h0c.4.8.7,1.5,1.1,2.3.8,1.3,2.3,2.7,3.5,3.6.6.5,1.1,1.3,2,1.6h0c0,0,0,0,0,0-.2-.2-.4-.4-.6-.6-.5-.5-1-1.1-1.4-1.6-1.1-1.5-2.1-3.2-3-4.9-.4-.8-.8-1.7-1.2-2.6-.1-.3-.1-.8-.4-1-.4.6-1,1.1-1.3,1.8-.5,1.2-.6,2.6-.7,4-.1,0,0,0-.1,0-.9-.2-1.2-1.1-1.5-1.8-.8-1.9-.9-5-.2-7.2.2-.6,1-2.4.7-2.9-.2-.5-.7-.8-1-1.2-.4-.5-.7-1.1-1-1.7-.7-1.5-1.3-3.2-2-4.7-.3-.7-.9-1.4-1.3-2.1-.5-.7-1.1-1.2-1.5-2.1-.1-.3-.3-.8-.1-1.1,0-.2.2-.3.4-.4.4-.3,1.3,0,1.7.2,1,.4,1.8.8,2.6,1.3.4.3.8.8,1.3.9h.6c.9.2,1.8,0,2.6.3,1.4.4,2.7,1.1,3.9,1.8,3.5,2.2,6.4,5.4,8.4,9.2.3.6.5,1.2.7,1.8.6,1.3,1.3,2.6,1.8,3.9.6,1.3,1.1,2.6,1.9,3.6.4.6,2,.9,2.8,1.2.5.2,1.4.4,1.8.7.9.6,1.8,1.2,2.7,1.8.4.3,1.8,1,1.8,1.5Z"/>
        <path class="cls-1" d="M69.1,29.7c-.4,0-.8,0-1.1.1h0c0,0,0,0,0,0,.2.4.6.7.9,1.1.2.4.4.9.6,1.3,0,0,0,0,0,0,.4-.3.6-.7.6-1.3-.2-.2-.2-.4-.3-.6-.2-.3-.5-.4-.7-.6Z"/>
      </g>
    </g>
  </g>
</svg>