<?xml version="1.0" encoding="utf-8"?>
<!-- Generator: Adobe Illustrator 28.2.0, SVG Export Plug-In . SVG Version: 6.00 Build 0)  -->
<svg version="1.1" id="Calque_1" xmlns="http://www.w3.org/2000/svg" xmlns:xlink="http://www.w3.org/1999/xlink" x="0px" y="0px"
	 viewBox="0 0 100.2 100.2" style="enable-background:new 0 0 100.2 100.2;" xml:space="preserve">
<style type="text/css">
	.st0{fill:#FFFFFF;}
</style>
<g>
	<path class="st0" d="M73.1,65c-0.1-0.7-0.3-1.4-0.5-2.1c0.5-0.1,1-0.3,1.4-0.4c8.8-2.9,14.6-7.7,14.6-12.5c0-4.6-5.4-9.1-13.7-12
		c-0.8-0.3-1.6-0.5-2.5-0.8c0.1-0.6,0.3-1.1,0.4-1.7c1.9-9.1,0.7-16.5-3.5-18.9c-4-2.3-10.6,0.1-17.3,5.9c-0.6,0.6-1.3,1.1-1.9,1.8
		c-0.4-0.4-0.9-0.8-1.3-1.2c-7-6.2-13.9-8.8-18.1-6.4c-4,2.3-5.2,9.2-3.5,17.9c0.2,0.8,0.4,1.7,0.6,2.6c-1,0.3-1.9,0.6-2.9,0.9
		c-8.2,2.8-13.4,7.3-13.4,11.9c0,4.8,5.6,9.6,14.1,12.5c0.7,0.2,1.4,0.4,2.1,0.7c-0.2,0.9-0.4,1.9-0.6,2.8
		c-1.6,8.5-0.4,15.2,3.7,17.6c4.1,2.4,11.1-0.1,17.9-6c0.5-0.5,1.1-1,1.6-1.5c0.7,0.7,1.4,1.3,2.1,1.9c6.6,5.6,13,7.9,17,5.6
		C73.5,81.1,74.8,73.9,73.1,65z M54.2,25c5.7-5,11-6.9,13.4-5.5c2.6,1.5,3.6,7.5,2,15.4c-0.1,0.5-0.2,1-0.3,1.5
		c-3.2-0.7-6.7-1.3-10.3-1.6c-2.1-3-4.3-5.8-6.5-8.1C53,26.1,53.6,25.5,54.2,25z M36,50.1c1-2.1,2.1-4.2,3.3-6.2c0,0,0,0,0,0l0,0
		c0,0,0,0,0,0c1.2-2.1,2.4-4.1,3.7-6c2.3-0.2,4.6-0.3,7-0.3h0c2.4,0,4.7,0.1,7,0.3c1.3,1.9,2.5,3.9,3.7,5.9c1.2,2.1,2.3,4.2,3.3,6.2
		c-1,2.1-2.1,4.2-3.3,6.2c-1.2,2.1-2.4,4.1-3.7,6c-2.3,0.2-4.7,0.2-7.1,0.2c-2.4,0-4.7-0.1-7-0.2c-1.3-1.9-2.6-3.9-3.8-6h0
		C38.1,54.2,37,52.2,36,50.1z M34.3,54c0.7,1.3,1.4,2.7,2.2,4h0c0.8,1.3,1.6,2.7,2.4,4c-2.5-0.3-4.9-0.7-7.1-1.1
		C32.5,58.6,33.3,56.3,34.3,54z M34.3,46.2c-1-2.3-1.8-4.5-2.5-6.7c2.2-0.5,4.5-0.9,7-1.2c-0.8,1.3-1.6,2.6-2.4,3.9v0
		C35.7,43.6,35,44.9,34.3,46.2z M63.7,57.9c0.8-1.4,1.5-2.7,2.2-4.1c1,2.3,1.9,4.6,2.6,6.8c-2.2,0.5-4.7,0.9-7.2,1.2
		C62.1,60.6,62.9,59.3,63.7,57.9z M65.9,46.2c-0.7-1.3-1.4-2.7-2.2-4c-0.8-1.3-1.5-2.6-2.3-3.9c2.5,0.3,4.8,0.7,7,1.2
		C67.7,41.7,66.9,43.9,65.9,46.2z M50.1,29c1.5,1.6,3,3.5,4.5,5.5c-1.5-0.1-3-0.1-4.6-0.1c-1.5,0-3,0-4.5,0.1
		C47,32.5,48.6,30.7,50.1,29z M32.4,19.6c2.6-1.5,8.3,0.6,14.3,6c0.4,0.3,0.8,0.7,1.2,1.1c-2.2,2.4-4.5,5.1-6.6,8.1
		c-3.6,0.3-7.1,0.9-10.3,1.6c-0.2-0.8-0.4-1.6-0.5-2.4C29,26.6,29.9,21,32.4,19.6z M28.6,60c-0.7-0.2-1.3-0.4-1.9-0.6
		c-3.8-1.3-6.9-3-9-4.8c-1.9-1.6-2.9-3.3-2.9-4.6c0-2.8,4.2-6.4,11.2-8.8c0.8-0.3,1.7-0.6,2.7-0.8c1,3.1,2.2,6.4,3.8,9.7
		C30.8,53.5,29.6,56.8,28.6,60z M46.4,75c-3,2.6-6,4.5-8.6,5.4c-2.4,0.8-4.3,0.9-5.4,0.2c-2.4-1.4-3.4-6.8-2.1-14.1
		c0.2-0.8,0.3-1.7,0.6-2.6c3.2,0.7,6.7,1.2,10.4,1.5c2.1,3,4.4,5.8,6.6,8.2C47.4,74.1,46.9,74.6,46.4,75z M50.2,71.3
		c-1.6-1.7-3.1-3.5-4.6-5.6c1.5,0.1,3,0.1,4.5,0.1c1.6,0,3.1,0,4.7-0.1C53.2,67.7,51.7,69.6,50.2,71.3z M70.2,75.9
		c-0.5,2.5-1.4,4.1-2.5,4.8c-2.4,1.4-7.6-0.4-13.2-5.2c-0.6-0.6-1.3-1.1-1.9-1.8c2.2-2.4,4.3-5.1,6.5-8.2c3.7-0.3,7.3-0.9,10.4-1.6
		c0.2,0.6,0.3,1.3,0.4,1.9C70.6,69.6,70.7,73.1,70.2,75.9z M67.8,50c1.5-3.3,2.8-6.6,3.8-9.6c0.8,0.2,1.6,0.5,2.3,0.7
		c7.1,2.5,11.5,6.1,11.5,8.9c0,3-4.7,6.9-12.3,9.4c-0.4,0.1-0.9,0.3-1.3,0.4C70.7,56.7,69.4,53.4,67.8,50z"/>
	<path class="st0" d="M50.1,43.1c3.8,0,6.9,3.1,6.9,6.9c0,3.8-3.1,6.9-6.9,6.9s-6.9-3.1-6.9-6.9C43.2,46.2,46.3,43.1,50.1,43.1"/>
</g>
</svg>
