<?xml version="1.0" encoding="utf-8"?>
<!-- Generator: Adobe Illustrator 28.2.0, SVG Export Plug-In . SVG Version: 6.00 Build 0)  -->
<svg version="1.1" id="Calque_1" xmlns="http://www.w3.org/2000/svg" xmlns:xlink="http://www.w3.org/1999/xlink" x="0px" y="0px"
	 viewBox="0 0 100.2 100.2" style="enable-background:new 0 0 100.2 100.2;" xml:space="preserve">
<style type="text/css">
	.st0{fill:#FFFFFF;}
</style>
<g>
	<path class="st0" d="M64.5,64.2c2.8-0.3,4.9-2.7,4.8-5.5c-0.1-2.9-2.5-5.1-5.3-5.1h-0.2c-3,0.1-5.2,2.6-5.1,5.5
		c0.1,1.4,0.7,2.7,1.5,3.5c-3.2,6.4-8.2,11-15.6,14.9c-5,2.7-10.3,3.6-15.5,3c-4.3-0.6-7.6-2.5-9.7-5.6c-3-4.7-3.3-9.7-0.8-14.8
		c1.8-3.6,4.7-6.3,6.5-7.6c-0.4-1.2-1-3.3-1.2-4.9c-13.8,10-12.4,23.5-8.2,29.9c3.1,4.8,9.5,7.7,16.6,7.7c1.9,0,3.8-0.2,5.7-0.7
		C50,82.2,59.3,74.9,64.5,64.2z M81.3,52.4C74,43.9,63.4,39.2,51.2,39.2h-1.5c-0.9-1.7-2.7-2.9-4.7-2.9h-0.2c-3,0.1-5.2,2.6-5.1,5.5
		c0.1,2.9,2.5,5.1,5.3,5.1h0.2c2.1-0.1,3.9-1.4,4.7-3.2h1.7c7.2,0,14.1,2.1,20.3,6.2c4.8,3.1,8.2,7.2,10.1,12.2
		c1.6,4,1.5,7.9-0.2,11.2c-2.7,5-7.1,7.8-13,7.8c-3.8,0-7.4-1.1-9.3-2c-1,1-3,2.5-4.3,3.4c4.1,1.9,8.3,3,12.3,3
		c9.1,0,15.9-5,18.5-10.1C88.6,70,88.4,60.5,81.3,52.4z M32.9,65.8c0.1,2.9,2.5,5.1,5.3,5.1h0.2c3-0.1,5.2-2.6,5.1-5.5
		c-0.1-2.9-2.5-5.1-5.3-5.1H38c-0.2,0-0.5,0-0.7,0.1c-3.9-6.5-5.5-13.5-5-21.1c0.4-5.7,2.3-10.7,5.6-14.8c2.8-3.5,8.1-5.2,11.7-5.3
		c10.1-0.2,14.4,12.4,14.7,17.4c1.2,0.3,3.3,1,4.8,1.4C68,22.6,58.5,14.6,49.4,14.6c-8.6,0-16.5,6.2-19.6,15.3
		c-4.4,12.2-1.5,23.9,3.8,33.1C33.1,63.7,32.8,64.7,32.9,65.8z"/>
</g>
</svg>
