<?xml version="1.0" encoding="utf-8"?>
<!-- Generator: Adobe Illustrator 28.2.0, SVG Export Plug-In . SVG Version: 6.00 Build 0)  -->
<svg version="1.1" id="Calque_1" xmlns="http://www.w3.org/2000/svg" xmlns:xlink="http://www.w3.org/1999/xlink" x="0px" y="0px"
	 viewBox="0 0 100.2 100.2" style="enable-background:new 0 0 100.2 100.2;" xml:space="preserve">
<style type="text/css">
	.st0{fill:#FFFFFF;}
</style>
<g>
	<path class="st0" d="M82.1,55.1c-3.1,0-5.8,0.8-8,1.9c-0.8-1.6-1.7-3.1-1.8-4.2c-0.2-1.2-0.4-2-0.2-3.5c0.2-1.5,1.1-3.6,1.1-3.8
		c0-0.2-0.2-0.9-2-0.9c-1.8,0-3.3,0.3-3.5,0.8c-0.2,0.5-0.5,1.5-0.7,2.6c-0.3,1.6-3.6,7.4-5.4,10.4c-0.6-1.2-1.1-2.2-1.2-3
		c-0.2-1.2-0.4-2-0.2-3.5c0.2-1.5,1.1-3.6,1.1-3.8c0-0.2-0.2-0.9-2-0.9c-1.8,0-3.3,0.3-3.5,0.8c-0.2,0.5-0.4,1.6-0.7,2.6
		c-0.4,1.1-4.7,10.7-5.8,13.2c-0.6,1.3-1.1,2.3-1.4,3l0,0c0,0,0,0-0.1,0.1c-0.3,0.6-0.5,0.9-0.5,0.9s0,0,0,0
		c-0.2,0.4-0.5,0.8-0.6,0.8c-0.1,0-0.3-1.2,0-2.8c0.6-3.4,2.2-8.6,2.2-8.8c0-0.1,0.3-1-1-1.5c-1.3-0.5-1.7,0.3-1.8,0.3
		c-0.1,0-0.2,0.3-0.2,0.3s1.4-5.9-2.7-5.9c-2.6,0-6.1,2.8-7.8,5.3c-1.1,0.6-3.5,1.9-6,3.3c-1,0.5-1.9,1.1-2.9,1.6
		c-0.1-0.1-0.1-0.1-0.2-0.2c-5-5.3-14.1-9-13.7-16.2c0.1-2.6,1-9.4,17.6-17.7c13.7-6.7,24.5-4.9,26.4-0.7
		c2.7,5.9-5.8,16.9-19.9,18.5c-5.4,0.6-8.2-1.5-8.9-2.3c-0.7-0.8-0.9-0.9-1.1-0.7c-0.5,0.2-0.2,1,0,1.4c0.4,1.1,2.2,3,5.1,4
		c2.6,0.8,8.9,1.3,16.5-1.6c8.5-3.3,15.2-12.5,13.3-20.2c-2-7.8-14.9-10.4-27.2-6c-7.3,2.6-15.2,6.7-20.9,12
		C6.4,37.2,5.3,42.7,5.8,45c1.6,8.2,12.8,13.5,17.3,17.4c-0.2,0.1-0.4,0.2-0.6,0.3c-2.3,1.1-10.8,5.6-13,10.4
		c-2.4,5.4,0.4,9.2,2.3,9.8c5.8,1.6,11.7-1.3,14.9-6s2.8-11,1.3-13.8c0,0,0-0.1-0.1-0.1c0.6-0.3,1.2-0.7,1.8-1
		c1.2-0.7,2.3-1.3,3.3-1.8c-0.6,1.5-1,3.3-1.2,5.9c-0.2,3,1,7,2.6,8.6c0.7,0.7,1.6,0.7,2.1,0.7c1.9,0,2.8-1.6,3.7-3.5
		c1.2-2.3,2.2-5,2.2-5s-1.3,7.2,2.3,7.2c1.3,0,2.6-1.7,3.2-2.5v0c0,0,0,0,0.1-0.2c0.1-0.2,0.2-0.3,0.2-0.3v0c0.5-0.9,1.7-3,3.4-6.4
		c2.2-4.4,4.4-9.9,4.4-9.9s0.2,1.3,0.9,3.6c0.4,1.3,1.2,2.8,1.8,4.2c-0.5,0.7-0.8,1.1-0.8,1.1s0,0,0,0c-0.4,0.6-0.9,1.2-1.4,1.7
		c-1.8,2.1-3.9,4.5-4.2,5.2c-0.3,0.8-0.3,1.4,0.4,1.9c0.5,0.4,1.3,0.4,2.2,0.4c1.6-0.1,2.7-0.5,3.3-0.7c0.9-0.3,1.9-0.8,2.8-1.5
		c1.7-1.3,2.8-3.1,2.7-5.5c0-1.3-0.5-2.7-1-3.9c0.2-0.2,0.3-0.5,0.5-0.7c2.7-4,4.9-8.4,4.9-8.4s0.2,1.3,0.9,3.6
		c0.3,1.1,1,2.4,1.6,3.6c-2.6,2.1-4.2,4.5-4.7,6.1c-1,3-0.2,4.3,1.3,4.6c0.7,0.1,1.7-0.2,2.4-0.5c0.9-0.3,2-0.8,3-1.5
		c1.7-1.3,3.4-3.1,3.3-5.5c0-1.1-0.3-2.2-0.7-3.2c2.2-0.9,5-1.4,8.6-1c7.7,0.9,9.2,5.7,8.9,7.8c-0.3,2-1.9,3.1-2.4,3.5
		c-0.5,0.3-0.7,0.5-0.7,0.7c0.1,0.4,0.3,0.3,0.8,0.3c0.6-0.1,4.1-1.6,4.2-5.4C94.7,60.2,90.2,55,82.1,55.1L82.1,55.1z M22.6,75.1
		c-2.6,2.8-6.1,3.8-7.7,3c-1.7-1-1-5.1,2.1-8c1.9-1.8,4.4-3.5,6-4.5c0.4-0.2,0.9-0.6,1.6-1c0.1-0.1,0.2-0.1,0.2-0.1l0,0
		c0.1-0.1,0.3-0.2,0.4-0.2C26.4,68.5,25.3,72.2,22.6,75.1L22.6,75.1z M41.2,62.5c-0.9,2.2-2.8,7.7-3.9,7.4c-1-0.3-1.6-4.5-0.2-8.6
		c0.7-2.1,2.2-4.6,3-5.6c1.4-1.6,2.9-2.1,3.3-1.4C44,55.1,41.8,61.1,41.2,62.5L41.2,62.5z M56.6,69.8c-0.4,0.2-0.7,0.3-0.9,0.2
		c-0.1-0.1,0.2-0.3,0.2-0.3s1.9-2.1,2.7-3c0.4-0.6,1-1.2,1.5-1.9V65C60.1,67.5,57.7,69.1,56.6,69.8L56.6,69.8z M68.5,67.1
		c-0.3-0.2-0.2-0.8,0.7-2.9c0.4-0.8,1.2-2.1,2.6-3.4c0.2,0.5,0.3,1,0.3,1.5C72.1,65.5,69.8,66.6,68.5,67.1L68.5,67.1z"/>
</g>
</svg>
