<?xml version="1.0" encoding="utf-8"?>
<!-- Generator: Adobe Illustrator 28.2.0, SVG Export Plug-In . SVG Version: 6.00 Build 0)  -->
<svg version="1.1" id="Calque_1" xmlns="http://www.w3.org/2000/svg" xmlns:xlink="http://www.w3.org/1999/xlink" x="0px" y="0px"
	 viewBox="0 0 100.2 100.2" style="enable-background:new 0 0 100.2 100.2;" xml:space="preserve">
<style type="text/css">
	.st0{fill:#FFFFFF;}
</style>
<g>
	<path class="st0" d="M92,51.2c0-23.2-18.8-42-42-42s-42,18.8-42,42c0,18.4,11.8,34,28.3,39.7c1-0.7,2.2-1.6,2.2-3.1
		c0-2.3,0-8.2,0-8.2s-1.8,0.3-4.4,0.3c-6.6,0-8.6-4.2-9.6-6.5c-1.3-3-2.9-4.5-4.7-5.6c-1.1-0.7-1.3-1.5-0.1-1.8
		c5.8-1.1,7.3,6.5,11.2,7.8c2.8,0.9,6.3,0.5,8.1-0.6c0.2-2.3,1.9-4.3,3.3-5.4c-9.8-0.9-15.7-4.3-18.7-9.8l-0.3-0.6l-0.8-1.7
		l-0.2-0.6c-0.9-2.8-1.4-6-1.4-9.5c0-6.3,2-8.7,4.6-12c-2-7.2,0.7-12.1,0.7-12.1s4.3-0.9,12.3,4.9c4.4-1.9,16-2,21.5-0.4
		c3.4-2.2,9.6-5.4,12.1-4.5c0.7,1.1,2.1,4.2,0.9,11.2c0.8,1.5,5.3,4.8,5.3,13.9c-0.1,3.4-0.4,6.2-1.1,8.6l-0.4,1.2
		c0,0-0.2,0.6-0.4,1.1l-0.3,0.6c-2.9,6.4-8.9,8.8-18.6,9.8c3.1,2,4,4.4,4,11.1c0,6.7-0.1,7.6-0.1,9.1c0,1.4,1.1,2.3,2.1,3.1
		C80.1,85.3,92,69.6,92,51.2z"/>
</g>
</svg>
