<?xml version="1.0" encoding="utf-8"?>
<!-- Generator: Adobe Illustrator 28.2.0, SVG Export Plug-In . SVG Version: 6.00 Build 0)  -->
<svg version="1.1" id="Calque_1" xmlns="http://www.w3.org/2000/svg" xmlns:xlink="http://www.w3.org/1999/xlink" x="0px" y="0px"
	 viewBox="0 0 100.2 100.2" style="enable-background:new 0 0 100.2 100.2;" xml:space="preserve">
<style type="text/css">
	.st0{fill:#FFFFFF;}
</style>
<path class="st0" d="M14.3,9.5l6.5,73.1L50,90.7l29.3-8.1l6.5-73.1H14.3z M72.3,26.8l-0.4,4.5l-0.2,2h0H50.1h0H37.4l0.8,9.2h11.8h0
	h18.4h2.4L70.7,45l-2.1,23.6l-0.1,1.5l-18.3,5.1v0l0,0l-18.4-5.1L30.4,56h4.1h4.9l0.6,7.1l10,2.7l0,0v0l10-2.7l1-11.6h-11h0H30
	l-2.2-24.7l-0.2-2.4h22.4h0h22.4L72.3,26.8z"/>
</svg>
