<?xml version="1.0" encoding="UTF-8"?>
<svg xmlns="http://www.w3.org/2000/svg" version="1.1" viewBox="0 0 100.2 100.2">
  <defs>
    <style>
      .cls-1 {
        fill: #fff;
      }
    </style>
  </defs>
  <!-- Generator: Adobe Illustrator 28.7.2, SVG Export Plug-In . SVG Version: 1.2.0 Build 154)  -->
  <g>
    <g id="Calque_1">
      <path class="cls-1" d="M55.3,9.5c4.5,10.3-16,16.7-17.9,25.3-1.7,7.9,12.2,17.1,12.2,17.1-2.1-3.3-3.7-6-5.8-11.1-3.6-8.6,21.8-16.4,11.5-31.4ZM68.9,23.8s-18,1.2-18.9,12.6c-.4,5.1,4.7,7.8,4.9,11.5.1,3-3,5.6-3,5.6,0,0,5.8-1.1,7.6-5.7,2-5.1-3.9-8.6-3.3-12.7.6-3.9,12.8-11.3,12.8-11.3ZM40.7,50.4s-16.4-.2-16.4,4.4,21.5,5.2,36.9,2.2c0,0,4.1-2.8,5.2-3.9-10.1,2.1-33,2.3-33,.5s7.4-3.3,7.4-3.3ZM72.3,50.4c-1.6.1-3.4.7-4.9,1.9,3.7-.8,6.9,1.5,6.9,4.1,0,5.9-8.5,11.4-8.5,11.4,0,0,13.2-1.5,13.2-11.2s-3.1-6.5-6.6-6.2ZM36.7,59.4c-2.5,0-6.3,2-6.3,3.9,0,3.8,19,6.7,33,1.2l-4.9-3c-9.5,3.1-27.1,2.1-21.9-2ZM39,67.9c-3.5,0-5.7,2.1-5.7,3.7,0,4.8,20.7,5.3,28.8.4l-5.2-3.3c-6.1,2.6-21.4,3-17.9-.8ZM27.5,72.2c-5.6-.1-9.3,2.4-9.3,4.5,0,11.2,57.7,10.7,57.7-.8s-2.2-2.8-3-3.2c4.7,10.9-47.2,10-47.2,3.6s3.8-2.9,7.4-2.2l-3-1.7c-.9-.1-1.7-.2-2.5-.2ZM82,79.7c-8.8,8.3-31,11.3-53.3,6.2,22.4,9.1,53.2,4,53.3-6.2Z"/>
    </g>
  </g>
</svg>