<?xml version="1.0" encoding="utf-8"?>
<!-- Generator: Adobe Illustrator 28.2.0, SVG Export Plug-In . SVG Version: 6.00 Build 0)  -->
<svg version="1.1" id="Calque_1" xmlns="http://www.w3.org/2000/svg" xmlns:xlink="http://www.w3.org/1999/xlink" x="0px" y="0px"
	 viewBox="0 0 100.2 100.2" style="enable-background:new 0 0 100.2 100.2;" xml:space="preserve">
<style type="text/css">
	.st0{fill:#FFFFFF;}
</style>
<g>
	<path class="st0" d="M14.3,9.5l6.5,73.1L50,90.7l29.3-8.1l6.5-73.1H14.3z M48.2,65.3v5v4.3l-16.5-4.6L30.4,56l5.8,1l0.4,5l5.3,1.5
		l-1.3-39.1h7.6V65.3z M71.7,32.9l-12,0.3l-0.2,4.4l-0.2,5h9.2h2.4L70.7,45l-2.1,23.6l-0.1,1.5l-16.7,4.6v-9.3l10.4-2.6l1-12
		l-11.4,0.7v-4.4v-4.6v-9.2v-4.5v-4.5h20.8L71.7,32.9z"/>
</g>
</svg>
