<?xml version="1.0" encoding="utf-8"?>
<!-- Generator: Adobe Illustrator 28.2.0, SVG Export Plug-In . SVG Version: 6.00 Build 0)  -->
<svg version="1.1" id="Calque_1" xmlns="http://www.w3.org/2000/svg" xmlns:xlink="http://www.w3.org/1999/xlink" x="0px" y="0px"
	 viewBox="0 0 182.4 87.1" style="enable-background:new 0 0 182.4 87.1;" xml:space="preserve">
<style type="text/css">
	.st0{fill:#11324A;}
</style>
<g>
	<g>
		<g>
			<path class="st0" d="M30,21.7c0.3-1.7,0.7-3.2,1.6-4.6c1.7-2.8,4.3-4.5,7.4-5.4c1.9-0.5,3.9-0.6,5.8-0.4c1.8,0.2,3.4,0.7,4.9,1.7
				c2.1,1.4,3.4,3.3,4,5.7c0.7,3,0.2,5.9-1.2,8.7c-3.3,6.2-8.4,10.2-15,12.3c-2.6,0.8-5.2,1-7.9,0.5c-2.3-0.4-4-1.7-5.3-3.6
				c-1-1.5-1.5-3.1-2.1-4.8c-2.4-6.6-4.7-13.1-7.1-19.7c0-0.1-0.1-0.2-0.1-0.3c2.8,0,5.5,0,8.3,0c0.3,1,0.7,1.9,1,2.9
				c1.8,5.4,3.7,10.8,5.5,16.2c0.2,0.6,0.5,1.2,0.8,1.8c0.5,0.9,1.4,1.3,2.4,1.3c1.7,0.1,3.3-0.3,4.8-1.1c3.5-1.8,6.3-4.4,8-8
				c0.5-1,0.8-2.2,0.8-3.3c0-2.2-1.1-3.7-3.4-3.9c-2.3-0.2-4.3,0.7-5.3,2.8c-0.2,0.4-0.2,0.8-0.4,1.1c0,0.1-0.2,0.2-0.3,0.2
				c-2.4,0-4.7,0-7.1,0C30.1,21.7,30.1,21.7,30,21.7z"/>
			<path class="st0" d="M67.1,40.4c-2.7,0-5.2-0.3-7.6-1.3c-1.8-0.8-3.4-1.9-4.4-3.6c-1-1.5-1.3-3.2-1.1-5c0.3-3.1,2-5.4,4.5-7.1
				c2.1-1.4,4.4-2.2,6.9-2.7c3.4-0.6,6.8-0.7,10.2,0.2c2.1,0.5,4.1,1.4,5.6,3c1.7,1.7,2.4,3.8,2.2,6.2c-0.3,3.2-2,5.5-4.6,7.2
				c-2,1.4-4.3,2.1-6.7,2.6C70.4,40.2,68.7,40.3,67.1,40.4z M67.4,34.4c1.8,0,3.5-0.2,5.2-0.9c1-0.4,1.9-0.9,2.6-1.7
				c1-1.1,1.1-2.7,0.4-3.8c-0.5-0.8-1.3-1.2-2.2-1.4c-2.7-0.7-5.4-0.5-8,0.2c-1.2,0.3-2.3,0.9-3.1,1.8c-0.8,0.9-1.1,2.3-0.6,3.4
				c0.4,0.8,1.1,1.3,1.9,1.7C64.8,34.3,66.1,34.4,67.4,34.4z"/>
			<path class="st0" d="M122.1,40.4c-2.6,0-5.2-0.3-7.7-1.3c-1.9-0.8-3.5-2-4.5-3.8c-0.8-1.4-1-2.9-0.9-4.4c0.3-3.5,2.2-6,5.1-7.7
				c2.3-1.4,4.7-2.1,7.4-2.5c1.7-0.2,3.4-0.4,5.2-0.3c2.5,0.1,5,0.6,7.2,1.8c1.8,0.9,3.2,2.2,4.1,4.1c0.7,1.5,0.8,3.1,0.5,4.7
				c-0.5,2.8-2.1,4.8-4.4,6.4c-2.1,1.4-4.4,2.2-6.8,2.7C125.5,40.2,123.8,40.3,122.1,40.4z M125.2,26.2c-1.6,0-3.2,0.1-4.7,0.6
				c-1.3,0.4-2.4,0.9-3.4,1.9c-1.3,1.4-1.3,3.9,0.9,4.9c1,0.4,1.9,0.7,3,0.7c2.5,0.2,4.9-0.1,7.2-1.1c0.8-0.3,1.4-0.8,2-1.5
				c0.8-1,1-2.1,0.6-3.3c-0.4-0.9-1.1-1.3-1.9-1.7C127.7,26.4,126.4,26.3,125.2,26.2z"/>
			<path class="st0" d="M143.1,20.7c2.3,0,4.5,0,6.7,0c0,0.6,0,1.3,0,1.9c0.1-0.1,0.2-0.1,0.3-0.2c2.3-1.7,4.9-2.3,7.7-2.2
				c1.8,0,3.5,0.3,5.1,1.1c2.2,1,3.8,2.6,4.5,4.9c0.5,1.4,0.4,2.9,0.1,4.4c-0.5,3-1.1,5.9-1.6,8.9c0,0.1,0,0.2-0.1,0.3
				c-2.4,0-4.8,0-7.2,0c0.4-2.4,0.9-4.9,1.3-7.3c0.1-0.7,0.3-1.4,0.3-2.1c0.2-2.2-0.8-3.6-3-4.1c-2.2-0.4-4.3-0.2-6.2,1
				c-1.6,1-2.4,2.5-2.7,4.4c-0.4,2.6-0.9,5.3-1.4,7.9c0,0,0,0.1,0,0.1c-2.4,0-4.8,0-7.2,0C140.8,33.5,141.9,27.1,143.1,20.7z"/>
			<polygon class="st0" points="92.1,39.9 84.9,39.9 89.8,11.7 97.1,11.7 			"/>
			<polygon class="st0" points="104.1,39.9 96.9,39.9 101.8,11.7 109.1,11.7 			"/>
		</g>
		<g>
			<g>
				<polygon class="st0" points="85.9,75.3 78.2,75.3 80.2,64 59.7,64 57.7,75.3 50,75.3 55,47.1 62.7,47.1 60.9,57.2 81.4,57.2 
					83.2,47.1 90.9,47.1 				"/>
				<path class="st0" d="M101.5,56.2c-0.6,3.1-1.1,6.1-1.6,9.1c-0.2,1.2-0.1,2.4,0.8,3.4c0.6,0.6,1.4,0.9,2.2,1
					c1.6,0.3,3.2,0.2,4.7-0.3c1.9-0.7,3.1-2.1,3.4-4.1c0.5-2.9,1-5.8,1.5-8.6c0-0.1,0.1-0.3,0.1-0.5c2.4,0,4.8,0,7.3,0
					c-1.1,6.4-2.2,12.8-3.4,19.2c-2.1,0-4.1,0-6.2,0c0-0.6,0-1.2,0-1.9c-0.1,0.1-0.2,0.1-0.3,0.1c-2.6,1.8-5.4,2.4-8.5,2.2
					c-2-0.1-3.8-0.6-5.5-1.7c-2.5-1.6-3.8-4-3.6-7c0.1-1.4,0.4-2.7,0.6-4.1c0.4-2.2,0.8-4.4,1.2-6.6c0-0.2,0.1-0.3,0.3-0.3
					c2.3,0,4.5,0,6.8,0C101.3,56.1,101.4,56.1,101.5,56.2z"/>
			</g>
			<ellipse class="st0" cx="123.9" cy="72.5" rx="3.3" ry="2.9"/>
		</g>
	</g>
</g>
</svg>
