<?xml version="1.0" encoding="utf-8"?>
<!-- Generator: Adobe Illustrator 28.2.0, SVG Export Plug-In . SVG Version: 6.00 Build 0)  -->
<svg version="1.1" id="Calque_1" xmlns="http://www.w3.org/2000/svg" xmlns:xlink="http://www.w3.org/1999/xlink" x="0px" y="0px"
	 viewBox="0 0 245.3 247.2" style="enable-background:new 0 0 245.3 247.2;" xml:space="preserve">
<style type="text/css">
	.st0{fill:#FFFFFF;}
</style>
<g>
	<circle cx="122.7" cy="123.6" r="122.7"/>
	<path class="st0" d="M63,116c0.5-3.5,1.6-6.8,3.4-9.9c3.6-6.1,9.1-9.6,15.8-11.4c4.1-1.1,8.2-1.3,12.4-0.8
		c3.8,0.4,7.3,1.5,10.5,3.5c4.5,2.9,7.3,7,8.5,12.2c1.5,6.5,0.5,12.6-2.6,18.4c-7,13.1-17.8,21.8-32,26.1c-5.5,1.7-11.1,2.1-16.8,1
		c-4.9-1-8.6-3.6-11.3-7.7c-2-3.1-3.2-6.7-4.4-10.1c-5.1-13.9-10.1-27.9-15.1-41.8c-0.1-0.2-0.1-0.5-0.2-0.7c5.9,0,11.8,0,17.7,0
		c0.7,2,1.4,4.1,2.1,6.1c3.9,11.5,7.8,22.9,11.8,34.4c0.5,1.3,1.1,2.6,1.7,3.8c1.1,2,2.9,2.7,5,2.9c3.6,0.2,7-0.7,10.1-2.2
		c7.5-3.8,13.4-9.3,17-17c1.1-2.2,1.6-4.6,1.7-7.1c0-4.7-2.4-8-7.3-8.4c-4.8-0.4-9.2,1.5-11.2,5.9c-0.4,0.8-0.5,1.6-0.8,2.4
		c-0.1,0.2-0.4,0.5-0.5,0.5c-5,0-10.1,0-15.1,0C63.2,116,63.1,116,63,116z"/>
	<polygon class="st0" points="192.4,153.6 176,153.6 180.3,129.5 136.8,129.5 132.5,153.6 116.1,153.6 126.7,93.7 143.1,93.7 
		139.3,115 182.8,115 186.6,93.7 203,93.7 	"/>
	<ellipse class="st0" cx="207" cy="147.5" rx="7.1" ry="6.3"/>
</g>
</svg>
