<?xml version="1.0" encoding="utf-8"?>
<!-- Generator: Adobe Illustrator 28.2.0, SVG Export Plug-In . SVG Version: 6.00 Build 0)  -->
<svg version="1.1" id="Calque_1" xmlns="http://www.w3.org/2000/svg" xmlns:xlink="http://www.w3.org/1999/xlink" x="0px" y="0px"
	 viewBox="0 0 100.2 100.2" style="enable-background:new 0 0 100.2 100.2;" xml:space="preserve">
<style type="text/css">
	.st0{fill:#FFFFFF;}
</style>
<g>
	<path class="st0" d="M81.1,29.3c-9.3-5.3-18.6-10.5-28-15.8c-1.9-1.1-4.3-1.1-6.1,0C37.7,18.7,28.4,24,19.2,29.2c-1.8,1-3,3-3,5
		v31.7c0,2.1,1.3,4.1,3.1,5.1c2.7,1.5,5.3,3.1,8,4.4c3.1,1.6,7.1,1.9,10.2,0.3c2.6-1.4,3.7-4.4,3.7-7.2c0-10.5,0-20.9,0-31.4
		c0.1-0.5-0.3-1-0.8-1c-1.2,0-2.4,0-3.6,0c-0.4,0-0.9,0.3-0.9,0.8c0,10.4,0,20.8,0,31.2c0,1.4-0.9,2.8-2.3,3.3
		c-1.5,0.6-3.2,0.1-4.6-0.6c-2.5-1.4-4.9-2.8-7.4-4.2c-0.3-0.2-0.5-0.5-0.5-0.9c0-10.5,0-20.9,0-31.4c0-0.4,0.2-0.8,0.6-1
		C31,28.2,40.3,23,49.5,17.8c0.3-0.2,0.8-0.2,1.1,0c9.3,5.2,18.5,10.4,27.8,15.7c0.4,0.2,0.6,0.6,0.6,1c0,10.5,0,20.9,0,31.4
		c0,0.4-0.2,0.7-0.5,0.9c-9.1,5.2-18.2,10.3-27.4,15.4c-0.4,0.2-1,0.6-1.5,0.3c-2.4-1.4-4.8-2.8-7.1-4.1c-0.3-0.2-0.6-0.2-0.9-0.1
		c-1.1,0.6-2.1,1.2-3.3,1.5c-0.5,0.2-1.2,0.3-1.5,0.7c0.4,0.6,1,0.8,1.6,1.2c2.8,1.6,5.6,3.2,8.4,4.8c1.8,1.2,4.3,1.3,6.2,0.2
		c9.3-5.2,18.6-10.5,27.9-15.7c1.8-1,3.1-3,3.1-5.1V34.2C84,32.2,82.9,30.3,81.1,29.3z"/>
	<path class="st0" d="M59.4,60.9c-2.8,0-5.8,0.1-8.2-1.5c-1.2-0.8-1.8-2.3-2-3.8c0-0.4-0.4-0.9-0.8-0.8c-1.2,0-2.4,0-3.6,0
		c-0.4,0-0.8,0.3-0.9,0.7c-0.1,2.6,0.9,5.2,2.8,6.9c2.3,2,5.4,2.8,8.3,3.1c3.2,0.3,6.4,0.3,9.5-0.4c2.3-0.5,4.7-1.5,6.3-3.4
		c2-2.2,2.4-5.6,1.5-8.3c-0.7-2.1-2.6-3.4-4.6-4.1c-4.8-1.7-10-1.6-14.8-2.8C52,46.2,51,45.9,50.6,45c-0.4-1.3-0.1-2.8,1.1-3.6
		c1.5-1,3.3-1.2,5-1.3c2.4,0,4.9-0.1,7,1c1.4,0.7,2.2,2.2,2.6,3.7c0.1,0.4,0.4,0.9,0.9,0.9c1.2,0,2.4,0,3.5,0c0.4,0,0.8-0.2,0.9-0.6
		c0-3.1-1.6-6.3-4.4-7.9c-3.6-2-8-2.1-12-1.8v0c-2.9,0.3-6,1.1-8.1,3.3c-2.2,2.2-2.7,5.6-1.6,8.5c0.7,2,2.6,3.3,4.6,4
		c4.8,1.7,10,1.2,14.8,2.7c0.9,0.3,2,0.8,2.3,1.9c0.3,1.2,0,2.7-1,3.5C64.2,60.7,61.6,60.8,59.4,60.9z"/>
</g>
</svg>
